<svg width="139" height="86" viewBox="0 0 139 86" fill="none" xmlns="http://www.w3.org/2000/svg">
<mask id="mask0_269_25" style="mask-type:luminance" maskUnits="userSpaceOnUse" x="19" y="-11" width="101" height="77">
<path d="M119.571 -10.9575H19.4289V65.1217H119.571V-10.9575Z" fill="white"/>
</mask>
<g mask="url(#mask0_269_25)">
<path d="M68.6254 16.8896C76.5181 13.6376 80.5257 23.0703 81.9734 27.6831C82.3716 28.9476 83.2021 30.0618 84.3597 30.7167C87.9263 32.7269 89.9827 38.2923 88.6829 41.8533" fill="#002A24"/>
<path d="M88.6829 41.853C86.3478 42.7404 48.4883 41.8417 48.4883 41.8417C47.2084 38.2807 49.2619 32.7407 52.8201 30.7363C53.9777 30.0813 54.8082 28.9671 55.2064 27.7026C56.6541 23.0898 60.6616 13.6572 68.5543 16.9091" fill="#002A24"/>
<path d="M68.5202 106.887C89.8975 106.887 107.227 90.9094 107.227 71.2003C107.227 51.4913 89.8975 35.5139 68.5202 35.5139C47.1429 35.5139 29.8132 51.4913 29.8132 71.2003C29.8132 90.9094 47.1429 106.887 68.5202 106.887Z" fill="#60B2A5"/>
<path d="M76.8822 29.1404C76.8822 30.7196 76.5921 32.2194 76.0773 33.5547C75.0334 36.2595 73.0567 38.315 70.6647 39.0862C70.5822 39.1089 70.5026 39.1344 70.4201 39.1571C70.386 39.1656 70.3547 39.1769 70.3234 39.1826C70.2722 39.1968 70.2267 39.2081 70.1755 39.2194C70.1584 39.2251 70.1357 39.2308 70.1186 39.2336C70.056 39.2478 69.9906 39.262 69.9252 39.2761C69.4787 39.3697 69.0179 39.4179 68.5458 39.4179C68.0736 39.4179 67.6129 39.3697 67.1663 39.2761C67.1037 39.262 67.0383 39.2478 66.9729 39.2336C66.9558 39.2336 66.9331 39.2279 66.916 39.2194C66.8648 39.2081 66.8193 39.1968 66.7681 39.1826C66.7368 39.1769 66.7056 39.1656 66.6714 39.1571C66.5889 39.1344 66.5093 39.1089 66.4268 39.0862C64.032 38.3093 62.0581 36.2567 61.0114 33.5491C60.4966 32.2137 60.2094 30.7167 60.2094 29.1375C60.2094 23.4587 63.941 18.8572 68.5458 18.8572C73.1506 18.8572 76.8822 23.4587 76.8822 29.1375V29.1404Z" fill="#EF7C3D"/>
<path d="M109.739 65.4817H87.4001L88.5293 57.4269C89.704 56.6104 91.0436 55.9696 92.4998 55.5415C93.8167 55.1588 95.2274 54.949 96.6951 54.949C99.9545 54.949 102.932 55.9781 105.222 57.6849C107.799 59.5987 109.497 62.3686 109.739 65.4817Z" fill="#EF7C3D"/>
<path d="M52.8855 65.4817H26.7869C27.023 61.8669 29.2301 58.7085 32.4896 56.7919C34.5829 55.5614 37.1143 54.8413 39.8362 54.8413C41.921 54.8413 43.8921 55.2638 45.6413 56.0151C46.5912 56.4205 47.4786 56.9252 48.2807 57.512L49.4952 65.1925L52.8656 65.2181C52.8741 65.306 52.8798 65.3939 52.8855 65.4817Z" fill="#EF7C3D"/>
<path d="M45.6413 56.0151C43.8921 55.2638 41.921 54.8414 39.8362 54.8414C37.1143 54.8414 34.5829 55.5615 32.4896 56.792C29.2301 58.7086 27.023 61.8669 26.7869 65.4818H25.6919C24.3124 63.7183 23.4962 61.5409 23.4962 59.1849C23.4962 53.3075 28.5702 48.5444 34.8247 48.5444C35.5272 48.5444 36.2155 48.604 36.8811 48.7202C41.0393 49.4347 44.404 52.284 45.6413 56.0151Z" fill="#F2F9FB"/>
<path d="M114.343 59.5108C114.343 61.7251 113.624 63.7806 112.395 65.4817H109.739C109.497 62.3687 107.799 59.5987 105.222 57.6849C102.932 55.9782 99.9545 54.949 96.695 54.949C95.2274 54.949 93.8167 55.1588 92.4998 55.5415C93.902 52.2697 96.9823 49.8031 100.742 49.083C101.476 48.9441 102.236 48.8704 103.015 48.8704C109.269 48.8704 114.343 53.6335 114.343 59.5108Z" fill="#F2F9FB"/>
<path d="M90.5971 42.6812L88.5293 57.4269L87.4002 65.4817L83.6572 65.4533L52.8656 65.218L49.4952 65.1925L48.2807 57.512L45.9371 42.6812H90.5971Z" fill="#F2F9FB"/>
</g>
</svg>
